<svg aria-hidden="true" style="position: absolute; width: 0; height: 0; overflow: hidden;" version="1.1" xmlns="http://www.w3.org/2000/svg" xmlns:xlink="http://www.w3.org/1999/xlink">
<defs>
<symbol id="icon-dental-prosthesis-svgrepo-com" viewBox="0 0 32 32">
<path d="M27.581 2.477c-1.427-1.597-3.39-2.477-5.529-2.477-1.675 0-3.469 0.99-4.779 1.713-0.434 0.239-1.081 0.631-1.272 0.631s-0.835-0.391-1.267-0.63c-1.307-0.723-3.097-1.714-4.784-1.714-2.139 0-4.103 0.88-5.529 2.477-1.356 1.518-2.102 3.515-2.102 5.625 0 1.359 0.25 2.955 0.641 4.767 0.368 1.705 1.536 3.14 4.003 4.226 0.745 0.328 2.083 0.584 2.323 0.824 0.288 0.288 0.596 1.33 0.596 1.33s0.070 0.245-0.033 0.245c-0.57 0-1.033 0.463-1.033 1.033s0.463 1.033 1.033 1.033c0 0 0.497 0 0.663 0 0.13 0 0.172 0.134 0.172 0.134l0.358 1.104c0 0 0.030 0.203-0.208 0.203-0.569 0-1.033 0.463-1.033 1.033s0.463 1.033 1.033 1.033c0 0 0.613 0 0.818 0 0.15 0 0.2 0.121 0.2 0.121l0.416 1.244c0 0 0.024 0.075-0.066 0.075-0.094 0-0.374 0-0.374 0-0.57 0-1.033 0.463-1.033 1.033s0.463 1.033 1.033 1.033c0 0 0.773 0 1.031 0 0.14 0 0.162 0.11 0.162 0.11l0.638 1.908 0.004 0.010c0.38 0.93 1.15 1.401 2.289 1.401h0.063c1.138 0 1.908-0.471 2.291-1.408 0 0 0.478-1.457 0.655-1.937 0.035-0.095 0.1-0.084 0.1-0.084h1.117c0.569 0 1.033-0.463 1.033-1.033s-0.28-1.033-1.033-1.033c-0.158 0-0.314 0-0.382 0-0.105 0-0.040-0.18-0.040-0.18l0.38-1.145c0 0 0.020-0.116 0.13-0.116 0.226 0 0.905 0 0.905 0 0.569 0 1.033-0.463 1.033-1.033s-0.414-1.033-0.983-1.033c-0.121 0-0.163 0.004-0.21 0.004-0.125 0-0.055-0.142-0.055-0.142s0.27-0.891 0.385-1.235c0.025-0.075 0.105-0.068 0.105-0.068h0.71c0.569 0 1.033-0.463 1.033-1.033s-0.463-1.033-1.033-1.033c-0.091 0-0.074-0.119-0.059-0.179 0.093-0.377 0.268-1.151 0.6-1.396 0.314-0.232 1.577-0.503 2.307-0.824 2.414-1.063 3.678-2.668 3.995-4.129 0.401-1.847 0.688-3.517 0.688-4.865 0-2.109-0.747-4.107-2.102-5.625zM17.094 30.108c-0.226 0.547-0.91 0.59-1.114 0.59s-0.885-0.042-1.113-0.586l-0.491-1.473c0 0-0.012-0.068 0.083-0.068 0.789 0 2.326 0 3.101 0 0.055 0 0.043 0.032 0.043 0.032l-0.51 1.505zM18.279 26.505c-1.138 0-3.404 0-4.55 0-0.070 0-0.085-0.070-0.085-0.070l-0.443-1.318c0 0-0.007-0.053 0.083-0.053 1.379 0 4.1 0 5.466 0 0.052 0 0.038 0.038 0.038 0.038l-0.467 1.378c0-0-0.013 0.024-0.043 0.024zM19.524 22.95c0 0-0.012 0.049-0.063 0.049-0.493 0-5.251 0-6.894 0-0.073 0-0.090-0.046-0.090-0.046l-0.433-1.311c0 0-0.028-0.086 0.082-0.086 2.149 0 5.847 0.002 7.796 0.002 0.070 0 0.051 0.054 0.051 0.054l-0.448 1.337zM20.547 19.493c-2.285 0-9.113-0.005-9.113-0.005s-0.070 0-0.103-0.070c-0.096-0.202-0.283-0.703-0.359-0.989-0.042-0.159 0.109-0.11 0.109-0.11 1.597 0.306 3.14 0.428 4.9 0.428 1.785 0 3.394-0.134 5.010-0.448 0 0 0.113-0.020 0.087 0.052-0.088 0.241-0.265 0.771-0.345 1.016-0.026 0.078-0.105 0.127-0.185 0.127zM27.851 12.561c-0.055 0.241-0.232 0.68-0.323 0.927-0.341 0.922-1.501 1.752-3.046 2.432-0.793 0.349-1.69 0.647-2.666 0.885l-0.17 0.041c-1.722 0.404-3.681 0.617-5.666 0.617-1.93 0-3.839-0.202-5.527-0.585l-0.166-0.038c-1.030-0.243-1.975-0.552-2.809-0.92-1.514-0.666-2.745-1.592-3.111-2.482-0.117-0.286-0.315-0.977-0.315-0.977-0.394-1.681-0.453-3.141-0.453-4.359 0-3.352 2.375-6.818 6.348-6.818 1.031 0 2.39 0.472 3.634 1.263 0.182 0.116 0.441 0.315 0.691 0.507 0.1 0.077 0.198 0.152 0.289 0.221 0.297 0.222 0.699 0.513 1.169 0.79 0.247 0.146 0.472 0.276 0.721 0.381 1.019 0.432 2.099 0.652 3.21 0.652 1.134 0 2.527-0.276 2.508-0.433s-2.341-0.157-3.887-0.567c-0.617-0.163-1.317-0.428-1.317-0.573 0-0.155 0.218-0.276 0.39-0.378 0.149-0.089 0.319-0.191 0.535-0.31 1.188-0.655 2.814-1.553 4.159-1.553 3.974 0 6.348 3.467 6.348 6.818 0 1.202-0.158 2.758-0.549 4.459z"></path>
</symbol>
<symbol id="icon-dental-dentist-svgrepo-com" viewBox="0 0 32 32">
<path d="M29.012 6.305c-0.977-1.662-2.617-2.703-4.497-2.855-0.17-0.014-0.342-0.021-0.516-0.021-0.107 0-0.21 0.013-0.316 0.018-2.077-2.219-4.793-3.447-7.684-3.447s-5.607 1.227-7.684 3.447c-0.106-0.005-0.209-0.018-0.316-0.018-0.174 0-0.346 0.007-0.515 0.021-1.881 0.153-3.52 1.193-4.497 2.855-1.017 1.729-1.131 3.846-0.306 5.663l1.663 3.658c0.166 0.364 0.286 0.746 0.358 1.137l2.311 12.481c0.297 1.597 1.69 2.756 3.314 2.756 1.242 0 2.379-0.679 2.967-1.773l1.698-3.154c0.202-0.377 0.579-0.601 1.006-0.601s0.803 0.225 1.006 0.601l1.698 3.154c0.587 1.095 1.725 1.774 2.967 1.774 1.624 0 3.018-1.159 3.314-2.757l2.311-12.481c0.072-0.391 0.193-0.774 0.358-1.137l1.663-3.658c0.825-1.817 0.711-3.934-0.306-5.663zM16 1.143c2.322 0 4.524 0.891 6.298 2.526-1.2 0.334-2.27 1.019-3.093 1.995-1.026-0.342-2.103-0.521-3.205-0.521s-2.179 0.179-3.205 0.521c-0.822-0.975-1.893-1.661-3.093-1.995 1.774-1.635 3.976-2.526 6.298-2.526zM28.277 11.494l-1.663 3.658c-0.204 0.448-0.353 0.92-0.442 1.403l-2.311 12.48c-0.196 1.056-1.117 1.822-2.19 1.822-0.821 0-1.573-0.449-1.961-1.171l-1.698-3.154c-0.406-0.752-1.158-1.202-2.013-1.202s-1.607 0.449-2.013 1.202l-1.698 3.154c-0.389 0.723-1.14 1.171-1.961 1.171-1.073 0-1.994-0.766-2.19-1.822l-2.311-12.481c-0.089-0.483-0.238-0.955-0.442-1.403l-1.663-3.658c-0.672-1.478-0.578-3.202 0.25-4.61 0.786-1.337 2.1-2.173 3.606-2.295 0.139-0.011 0.279-0.017 0.421-0.017 1.406 0 2.71 0.558 3.673 1.545-1.301 0.612-2.498 1.501-3.526 2.645l0.85 0.763c1.876-2.089 4.363-3.239 7.003-3.239s5.127 1.15 7.003 3.239l0.85-0.763c-1.029-1.145-2.225-2.033-3.526-2.646 0.962-0.987 2.266-1.544 3.673-1.544 0.142 0 0.282 0.006 0.422 0.017 1.505 0.122 2.819 0.958 3.605 2.295 0.829 1.409 0.922 3.132 0.25 4.61z"></path>
<path d="M19.954 15.429c-0.252-1.748-1.635-3.131-3.383-3.383v-2.331h-1.143v2.331c-1.748 0.252-3.131 1.635-3.383 3.383h-2.331v1.143h2.331c0.252 1.748 1.635 3.131 3.383 3.383v2.331h1.143v-2.331c1.748-0.252 3.131-1.635 3.383-3.383h2.331v-1.143h-2.331zM15.428 18.799c-1.118-0.228-2-1.11-2.228-2.228h2.228v2.228zM15.428 15.429h-2.228c0.228-1.118 1.11-2 2.228-2.228v2.228zM16.571 18.799v-2.228h2.228c-0.228 1.118-1.11 2-2.228 2.228zM16.571 15.429v-2.228c1.118 0.228 2 1.11 2.228 2.228h-2.228z"></path>
</symbol>
<symbol id="icon-dental-review-svgrepo-com" viewBox="0 0 32 32">
<path d="M9.842 24.261c0.745 1.072 1.374 1.572 1.979 1.572 0.228 0 0.79-0.087 1.081-0.891 0.24-0.663 0.454-1.42 0.681-2.221 0.552-1.95 1.309-4.621 2.378-4.621h0.076c0.46 0 0.887 0.425 1.304 1.299 0.438 0.918 0.775 2.149 1.1 3.34 0.217 0.796 0.423 1.548 0.655 2.201 0.285 0.801 0.842 0.887 1.069 0.888 0.603 0 1.232-0.507 1.978-1.595 0.593-0.865 1.217-2.038 1.806-3.394 1.32-3.041 2.108-6.127 2.108-8.255 0-1.56-0.553-3.039-1.556-4.162-1.058-1.185-2.515-1.838-4.102-1.838-1.246 0-2.565 0.727-3.528 1.259-0.258 0.142-0.725 0.4-0.871 0.442-0.147-0.042-0.611-0.299-0.867-0.441-0.961-0.532-2.277-1.26-3.532-1.26-1.587 0-3.044 0.653-4.102 1.837-1.004 1.124-1.557 2.602-1.557 4.162 0 2.19 0.784 5.3 2.097 8.317 0.585 1.344 1.208 2.506 1.803 3.361zM11.601 7.737c0.729 0 1.695 0.337 2.582 0.9 0.128 0.081 0.314 0.225 0.494 0.363 0.073 0.056 0.144 0.111 0.211 0.161 0.219 0.164 0.514 0.378 0.86 0.581 0.183 0.108 0.35 0.204 0.537 0.284 0.754 0.32 1.554 0.483 2.377 0.483 0.841 0 1.268-0.094 1.428-0.132 0.3-0.072 1.002-0.262 0.988-0.366-0.012-0.092-0.785-0.046-1.046-0.069-0.303-0.026-1.23-0.083-2.344-0.378-0.334-0.089-0.787-0.267-0.808-0.366-0.015-0.075 0.308-0.282 0.554-0.433 0.862-0.529 2.014-1.028 2.963-1.028 2.819 0 4.504 2.463 4.504 4.845 0 1.948-0.771 4.935-2.012 7.795-0.552 1.271-1.155 2.408-1.699 3.2-0.526 0.766-0.834 1.108-0.968 1.067-0.025-0.008-0.059-0.044-0.073-0.083-0.217-0.608-0.383-1.348-0.595-2.128-0.339-1.24-0.689-2.522-1.171-3.534-0.628-1.316-1.396-1.956-2.346-1.956h-0.076c-0.918 0-1.668 0.635-2.295 1.941-0.481 1.002-0.843 2.282-1.195 3.524-0.221 0.78-0.387 1.51-0.612 2.133-0.016 0.044-0.061 0.104-0.089 0.113-0.133 0.043-0.445-0.283-0.98-1.053-0.544-0.783-1.145-1.906-1.692-3.163-1.234-2.836-2.001-5.847-2.001-7.856-0-2.382 1.685-4.845 4.504-4.845z"></path>
<path d="M31.537 11.293c0 0-0.892 0.247-1.188 0.334-0.134 0.039-0.144-0.037-0.144-0.037-0.656-2.858-2.134-5.393-4.32-7.418-2.726-2.524-6.275-3.915-9.992-3.915-3.724 0-7.277 1.394-10.005 3.926-2.713 2.518-4.368 5.929-4.659 9.606-0.035 0.437 0.291 0.818 0.728 0.853 0.021 0.002 0.043 0.003 0.064 0.003 0.409 0 0.756-0.315 0.789-0.73 0.537-6.769 6.284-12.072 13.084-12.072 6.17 0 11.464 4.301 12.789 10.174 0 0 0.028 0.070-0.032 0.088-0.399 0.123-1.606 0.451-1.606 0.451-0.355 0.1-0.413 0.374-0.129 0.609l3.031 2.509c0.284 0.235 0.615 0.142 0.735-0.207l1.282-3.72c0.12-0.349-0.072-0.553-0.427-0.453z"></path>
<path d="M30.101 17.358c-0.437-0.035-0.818 0.291-0.853 0.728-0.537 6.769-6.284 12.072-13.084 12.072-6.172 0-11.466-4.297-12.789-10.173 0 0-0.018-0.081 0.043-0.099 0.453-0.131 1.537-0.432 1.537-0.432 0.355-0.1 0.413-0.374 0.129-0.609l-3.031-2.508c-0.284-0.235-0.615-0.142-0.735 0.206l-1.282 3.72c-0.12 0.349 0.072 0.552 0.427 0.453 0 0 0.86-0.243 1.308-0.367 0.055-0.015 0.079 0.085 0.079 0.085 0.656 2.86 2.134 5.368 4.322 7.395 2.726 2.524 6.275 3.914 9.992 3.914 3.724 0 7.277-1.394 10.005-3.926 2.713-2.518 4.368-5.929 4.659-9.606 0.035-0.436-0.291-0.818-0.727-0.853z"></path>
</symbol>
<symbol id="icon-dental-chair-svgrepo-com" viewBox="0 0 32 32">
<path d="M2.726 6.491l0.875-0.19c1.007-0.218 1.649-1.215 1.431-2.222l-0.461-2.126c-0.186-0.853-0.955-1.472-1.828-1.472-0.132 0-0.265 0.014-0.395 0.042l-0.875 0.189c-0.487 0.106-0.903 0.395-1.174 0.816s-0.362 0.92-0.256 1.406l0.461 2.126c0.185 0.853 0.953 1.473 1.827 1.473 0.132 0 0.265-0.014 0.395-0.043zM1.53 4.839l-0.461-2.126c-0.046-0.212-0.006-0.431 0.113-0.616s0.301-0.312 0.513-0.357l0.875-0.19c0.057-0.012 0.115-0.018 0.172-0.018 0.383 0 0.721 0.271 0.801 0.645l0.461 2.125c0.096 0.441-0.186 0.878-0.627 0.974l-0.875 0.19c-0.436 0.094-0.88-0.197-0.973-0.627zM31.453 22.682l-8.259-8.242c-0.62-0.618-1.79-1.102-2.665-1.102l-1.8 0.001v-1.806c1.030 0 1.869-0.754 1.869-1.68s-0.839-1.68-1.869-1.68h-5.267c-1.030 0-1.869 0.754-1.869 1.68s0.838 1.68 1.869 1.68v1.808h-0.303c-0.6 0-1.498-0.372-1.923-0.796l-5.208-5.208c-0.703-0.704-1.939-0.703-2.642 0l-0.633 0.633c-0.352 0.352-0.545 0.821-0.545 1.321s0.194 0.969 0.546 1.321l6.265 6.256c0.62 0.619 1.79 1.103 2.665 1.103h3.888v4.269h-2.162c-0.29 0-0.525 0.235-0.525 0.525v2.162h-1.155c-1.030 0-1.868 0.838-1.868 1.869v2.855c0 1.030 0.838 1.869 1.869 1.869h10.749c1.030 0 1.869-0.838 1.869-1.869v-2.855c0-1.030-0.839-1.869-1.869-1.869h-1.154v-2.162c0-0.29-0.235-0.525-0.525-0.525h-2.162v-4.269h0.429c0.6 0 1.498 0.372 1.923 0.796l7.191 7.191c0.352 0.352 0.82 0.546 1.322 0.546 0.5 0 0.969-0.194 1.321-0.546l0.634-0.634c0.352-0.352 0.545-0.821 0.545-1.321s-0.195-0.97-0.547-1.322zM12.643 9.853c0-0.341 0.375-0.63 0.819-0.63h5.267c0.444 0 0.819 0.289 0.819 0.63s-0.375 0.63-0.819 0.63h-5.267c-0.444 0-0.819-0.289-0.819-0.63zM14.512 11.532h3.167v1.807l-3.168 0.001v-1.808zM23.297 26.795v2.855c0 0.451-0.367 0.819-0.819 0.819h-10.749c-0.451 0-0.819-0.367-0.819-0.819v-2.855c0-0.451 0.367-0.819 0.819-0.819h10.749c0.452 0 0.819 0.367 0.819 0.819zM20.274 24.927h-6.341v-1.638h6.341v1.638zM17.586 22.239h-0.966v-4.269h0.966v4.269zM19.065 16.921h-7.383c-0.6 0-1.498-0.372-1.923-0.796l-6.265-6.256c-0.154-0.153-0.238-0.358-0.238-0.578s0.084-0.425 0.238-0.579l0.633-0.633c0.154-0.153 0.36-0.238 0.579-0.238s0.425 0.085 0.579 0.238l5.208 5.208c0.619 0.619 1.789 1.104 2.665 1.104h0.303v1.18c0 0.29 0.235 0.525 0.525 0.525s0.525-0.235 0.525-0.525v-1.181l3.167-0.001v1.181c0 0.29 0.235 0.525 0.525 0.525s0.525-0.235 0.525-0.525v-1.182l1.8-0.001c0.6 0 1.499 0.372 1.924 0.796l6.787 6.773-1.719 1.859-5.791-5.789c-0.619-0.618-1.79-1.103-2.665-1.103zM30.713 24.582l-0.634 0.634c-0.308 0.308-0.85 0.307-1.158 0l-0.658-0.658 1.72-1.859 0.729 0.727c0.154 0.153 0.238 0.358 0.238 0.578 0 0.219-0.084 0.424-0.238 0.578z"></path>
</symbol>
<symbol id="icon-circle-right" viewBox="0 0 32 32">
<path d="M16 0c-8.837 0-16 7.163-16 16s7.163 16 16 16 16-7.163 16-16-7.163-16-16-16zM16 29c-7.18 0-13-5.82-13-13s5.82-13 13-13 13 5.82 13 13-5.82 13-13 13z"></path>
<path d="M11.086 22.086l2.829 2.829 8.914-8.914-8.914-8.914-2.828 2.828 6.086 6.086z"></path>
</symbol>
<symbol id="icon-phone-call-svgrepo-com" viewBox="0 0 32 32">
<path d="M25.106 16.244c-0.216 0-0.426 0.088-0.575 0.237s-0.237 0.359-0.237 0.575 0.088 0.426 0.237 0.575 0.359 0.237 0.575 0.237 0.426-0.088 0.575-0.237 0.237-0.359 0.237-0.575-0.088-0.426-0.237-0.575c-0.156-0.156-0.365-0.237-0.575-0.237z"></path>
<path d="M17.503 6.78c-0.095 0.44 0.189 0.866 0.629 0.961 0.054 0.014 0.115 0.020 0.169 0.020 0.379 0 0.71-0.264 0.791-0.643 0.095-0.44-0.189-0.866-0.629-0.961s-0.866 0.183-0.961 0.622z"></path>
<path d="M23.3 9.946c-0.372 0.25-0.467 0.758-0.216 1.13 0.156 0.23 0.413 0.359 0.676 0.359 0.156 0 0.311-0.047 0.453-0.142 0.372-0.25 0.467-0.758 0.216-1.13-0.257-0.365-0.758-0.467-1.13-0.216z"></path>
<path d="M20.709 7.795c-0.25 0.372-0.156 0.879 0.216 1.13 0.142 0.095 0.298 0.135 0.453 0.135 0.264 0 0.514-0.122 0.676-0.359 0.25-0.372 0.156-0.879-0.216-1.13-0.372-0.244-0.879-0.149-1.13 0.223z"></path>
<path d="M24.261 13.87c0.081 0.386 0.419 0.643 0.791 0.643 0.054 0 0.108-0.007 0.169-0.020 0.44-0.095 0.724-0.521 0.629-0.961s-0.521-0.724-0.961-0.629c-0.44 0.101-0.724 0.528-0.629 0.967z"></path>
<path d="M14.946 6.083c-0.216 0-0.426 0.088-0.575 0.237s-0.237 0.359-0.237 0.575 0.088 0.426 0.237 0.575c0.149 0.149 0.359 0.237 0.575 0.237s0.426-0.088 0.575-0.237 0.237-0.359 0.237-0.575-0.088-0.426-0.237-0.575c-0.149-0.149-0.359-0.237-0.575-0.237z"></path>
<path d="M30.978 16.44c-0.216 0-0.426 0.088-0.575 0.237s-0.237 0.359-0.237 0.575 0.088 0.426 0.237 0.575 0.359 0.237 0.575 0.237 0.426-0.088 0.575-0.237 0.237-0.359 0.237-0.575-0.088-0.426-0.237-0.575c-0.156-0.156-0.365-0.237-0.575-0.237z"></path>
<path d="M30.444 8.16c-0.203-0.399-0.69-0.561-1.089-0.365-0.399 0.203-0.561 0.69-0.365 1.089 0.142 0.284 0.426 0.446 0.724 0.446 0.122 0 0.244-0.027 0.365-0.088 0.406-0.196 0.568-0.683 0.365-1.082z"></path>
<path d="M23.124 3.012c0.115 0.061 0.244 0.088 0.365 0.088 0.298 0 0.582-0.162 0.724-0.446 0.203-0.399 0.041-0.886-0.365-1.089v0c-0.399-0.203-0.886-0.041-1.089 0.365-0.196 0.392-0.041 0.879 0.365 1.082z"></path>
<path d="M17.706 1.632c0.014 0 0.020 0 0.027 0 0.433 0 0.798-0.345 0.812-0.785 0.014-0.446-0.331-0.825-0.785-0.839-0.446-0.020-0.825 0.331-0.839 0.778s0.338 0.825 0.785 0.846z"></path>
<path d="M20.486 2.031c0.068 0.020 0.135 0.027 0.203 0.027 0.365 0 0.69-0.244 0.785-0.609 0.108-0.433-0.149-0.879-0.589-0.988-0.433-0.108-0.879 0.149-0.988 0.589-0.108 0.426 0.156 0.866 0.589 0.981z"></path>
<path d="M28.739 5.502c-0.284-0.352-0.791-0.406-1.143-0.122-0.345 0.284-0.406 0.791-0.122 1.143 0.162 0.196 0.392 0.304 0.629 0.304 0.183 0 0.359-0.061 0.507-0.183 0.352-0.284 0.406-0.791 0.129-1.143z"></path>
<path d="M30.376 14.302c0.014 0.44 0.379 0.785 0.812 0.785 0.007 0 0.020 0 0.027 0 0.446-0.014 0.798-0.392 0.785-0.839s-0.392-0.798-0.839-0.785c-0.453 0.014-0.805 0.386-0.785 0.839z"></path>
<path d="M30.762 12.131c0.068 0 0.135-0.007 0.203-0.027 0.433-0.108 0.697-0.555 0.589-0.988v0c-0.108-0.433-0.555-0.697-0.988-0.589s-0.697 0.555-0.589 0.988v0c0.088 0.372 0.419 0.616 0.785 0.616z"></path>
<path d="M25.485 4.534c0.149 0.122 0.331 0.183 0.507 0.183 0.237 0 0.474-0.101 0.629-0.304 0.284-0.352 0.23-0.859-0.122-1.143s-0.859-0.23-1.143 0.122c-0.277 0.352-0.223 0.859 0.129 1.143z"></path>
<path d="M14.756 1.835c0.216 0 0.426-0.088 0.575-0.237s0.237-0.359 0.237-0.575-0.088-0.426-0.237-0.575-0.359-0.237-0.575-0.237-0.426 0.088-0.575 0.237-0.237 0.359-0.237 0.575 0.088 0.426 0.237 0.575c0.149 0.156 0.359 0.237 0.575 0.237z"></path>
<path d="M23.063 20.945c-0.609-0.602-1.333-0.927-2.084-0.927s-1.468 0.318-2.077 0.92l-0.162 0.156c-0.595 0.589-1.204 1.191-1.799 1.806-0.115-0.061-0.223-0.115-0.338-0.169-0.277-0.135-0.534-0.264-0.771-0.413-1.806-1.136-3.47-2.652-5.080-4.627-0.771-0.947-1.312-1.793-1.691-2.638 0.528-0.507 1.042-1.035 1.549-1.542l0.392-0.392c1.279-1.285 1.272-2.943-0.007-4.235-0.386-0.386-0.778-0.778-1.157-1.157-0.169-0.169-0.338-0.338-0.501-0.501-0.176-0.176-0.359-0.359-0.534-0.534-0.386-0.386-0.778-0.785-1.177-1.177-0.609-0.602-1.333-0.92-2.084-0.92s-1.468 0.318-2.077 0.92c-0.291 0.284-0.575 0.575-0.859 0.859-0.406 0.413-0.825 0.839-1.251 1.238-0.798 0.758-1.245 1.718-1.333 2.848-0.135 1.772 0.359 3.376 0.805 4.573 1.008 2.706 2.544 5.27 4.695 7.834 2.686 3.193 5.919 5.723 9.613 7.522 2.036 0.988 3.781 1.495 5.486 1.59 0.129 0.007 0.25 0.014 0.372 0.014 1.448 0 2.638-0.507 3.538-1.515 0.386-0.426 0.791-0.825 1.231-1.251 0.216-0.216 0.446-0.433 0.67-0.656 1.272-1.285 1.279-2.943 0.014-4.214-1.13-1.17-2.273-2.314-3.382-3.409zM25.296 27.406c-0.21 0.216-0.433 0.426-0.649 0.636-0.433 0.426-0.886 0.859-1.306 1.333-0.649 0.724-1.468 1.028-2.604 0.967-1.481-0.081-3.031-0.534-4.864-1.427-3.491-1.698-6.541-4.086-9.078-7.103-2.036-2.422-3.477-4.823-4.417-7.353-0.575-1.549-0.791-2.746-0.71-3.883 0.054-0.737 0.318-1.306 0.832-1.793 0.44-0.419 0.866-0.852 1.285-1.272 0.277-0.277 0.561-0.568 0.839-0.839 0.21-0.203 0.541-0.453 0.94-0.453s0.731 0.244 0.947 0.453c0.392 0.386 0.785 0.778 1.164 1.164 0.183 0.183 0.359 0.359 0.541 0.541 0.169 0.169 0.338 0.338 0.507 0.501 0.379 0.379 0.771 0.764 1.15 1.15 0.649 0.656 0.656 1.292 0.007 1.948l-0.392 0.399c-0.548 0.555-1.116 1.123-1.684 1.671-0.291 0.284-0.582 0.764-0.291 1.454 0.44 1.062 1.082 2.084 2.009 3.227 1.725 2.117 3.518 3.748 5.479 4.979 0.304 0.189 0.616 0.345 0.92 0.494 0.176 0.088 0.345 0.169 0.507 0.257 0.21 0.115 0.419 0.169 0.629 0.169v0c0.338 0 0.649-0.142 0.92-0.426 0.636-0.656 1.292-1.306 1.935-1.941l0.162-0.156c0.21-0.21 0.541-0.453 0.934-0.453s0.731 0.25 0.94 0.453c1.103 1.096 2.246 2.232 3.389 3.382 0.602 0.629 0.602 1.279-0.041 1.921z"></path>
</symbol>
</defs>
</svg>
