<?xml version="1.0" encoding="iso-8859-1"?>
<!-- Generator: Adobe Illustrator 19.0.0, SVG Export Plug-In . SVG Version: 6.00 Build 0)  -->
<svg version="1.1" id="Layer_1" xmlns="http://www.w3.org/2000/svg" xmlns:xlink="http://www.w3.org/1999/xlink" x="0px" y="0px"
	 viewBox="0 0 511.672 511.672" style="enable-background:new 0 0 511.672 511.672;" xml:space="preserve">
<path style="fill:#434A54;" d="M255.836,37.304c-5.887,0-10.657,4.778-10.657,10.665v23.313h21.314V47.969
	C266.493,42.082,261.723,37.304,255.836,37.304z"/>
<path style="fill:#E6E9ED;" d="M319.764,120.189c-1.281-34.213-29.418-61.555-63.928-61.555c-35.321,0-63.951,29.075-63.951,64.396
	l-21.33,308.693h170.57L319.764,120.189z"/>
<path style="fill:#FFCE54;" d="M191.885,123.03l-4.388,63.521h136.826l-4.56-66.363c-1.28-34.212-29.417-61.554-63.927-61.554
	C220.515,58.634,191.885,87.709,191.885,123.03z"/>
<path style="fill:#4A89DC;" d="M477.366,413.376c-8.198,5.449-18.691,8.463-29.56,8.463c-10.898,0-21.393-3.014-29.574-8.463
	l-28.482-18.988c-0.671-0.453-2.779-1.312-5.902-1.312c-3.154,0-5.246,0.858-5.934,1.312l-28.481,18.988
	c-8.183,5.449-18.676,8.463-29.544,8.463c-10.898,0-21.393-3.014-29.574-8.463l-28.482-18.988c-0.672-0.453-2.771-1.312-5.91-1.312
	s-5.239,0.858-5.918,1.312l-28.482,18.988c-8.182,5.449-18.675,8.463-29.559,8.463s-21.385-3.014-29.567-8.463l-28.482-18.988
	c-0.671-0.453-2.771-1.312-5.91-1.312s-5.239,0.858-5.918,1.312l-28.483,18.988c-8.182,5.449-18.676,8.463-29.559,8.463
	c-10.884,0-21.385-3.014-29.567-8.463L5.996,394.388c-0.671-0.453-2.779-1.312-5.91-1.312v81.292h511.586v-81.292
	c-3.092,0.031-5.152,0.858-5.84,1.312L477.366,413.376z"/>
<path style="fill:#5D9CEC;" d="M0,399.76c0.031,0,0.055-0.016,0.086-0.016c3.131,0,5.239,0.858,5.91,1.296l28.482,18.987
	c8.182,5.466,18.683,8.464,29.567,8.464c10.883,0,21.377-2.998,29.559-8.464l28.482-18.987c0.679-0.438,2.779-1.296,5.918-1.296
	c3.139,0,5.239,0.858,5.91,1.296l28.482,18.987c8.182,5.466,18.683,8.464,29.567,8.464s21.377-2.998,29.559-8.464l28.482-18.987
	c0.679-0.438,2.779-1.296,5.918-1.296c3.139,0,5.238,0.858,5.91,1.296l28.482,18.987c8.182,5.466,18.676,8.464,29.574,8.464
	c10.868,0,21.361-2.998,29.544-8.464l28.481-18.987c0.688-0.438,2.779-1.296,5.934-1.296c3.123,0,5.231,0.858,5.902,1.296
	l28.482,18.987c8.182,5.466,18.676,8.464,29.574,8.464c10.868,0,21.361-2.998,29.56-8.464l28.466-18.987
	c0.688-0.438,2.748-1.28,5.84-1.28v-21.33c-6.402,0.016-12.804,1.639-17.645,4.871l-28.482,18.988
	c-4.887,3.248-11.32,4.872-17.738,4.872c-6.434,0-12.867-1.624-17.738-4.872l-28.482-18.988c-4.887-3.248-11.32-4.871-17.738-4.871
	c-6.434,0-12.867,1.623-17.754,4.871l-28.467,18.988c-4.887,3.248-11.32,4.872-17.738,4.872c-6.434,0-12.867-1.624-17.738-4.872
	l-28.482-18.988c-4.887-3.248-11.32-4.871-17.746-4.871c-6.433,0-12.859,1.623-17.739,4.871l-28.481,18.988
	c-4.88,3.248-11.313,4.872-17.739,4.872c-6.434,0-12.859-1.624-17.739-4.872l-28.481-18.988c-4.88-3.248-11.313-4.871-17.739-4.871
	c-6.434,0-12.859,1.623-17.739,4.871l-28.481,18.988c-4.88,3.248-11.313,4.872-17.739,4.872c-6.434,0-12.859-1.624-17.739-4.872
	l-28.482-18.988c-4.879-3.248-11.313-4.871-17.738-4.871c-0.031,0-0.055,0-0.086,0L0,399.76L0,399.76z"/>
<g>
	<rect x="224.236" y="149.236" style="fill:#434A54;" width="21.322" height="31.979"/>
	<rect x="266.106" y="149.236" style="fill:#434A54;" width="21.33" height="31.979"/>
</g>
<path style="fill:#656D78;" d="M330.444,133.242H181.22c-5.887,0-10.665,4.778-10.665,10.665s4.778,10.665,10.665,10.665h149.225
	c5.903,0,10.681-4.778,10.681-10.665C341.125,138.021,336.348,133.242,330.444,133.242z"/>
<g>
	<path style="fill:#FFCE54;" d="M405.084,186.552h-31.978c-5.903,0-10.682,4.778-10.682,10.649c0,5.903,4.778,10.665,10.682,10.665
		h31.979c5.871,0,10.65-4.762,10.65-10.665C415.734,191.33,410.955,186.552,405.084,186.552z"/>
	<path style="fill:#FFCE54;" d="M373.106,143.907h31.979c5.871,0,10.65-4.762,10.65-10.665c0-5.871-4.779-10.649-10.65-10.649
		h-31.979c-5.903,0-10.682,4.778-10.682,10.649C362.424,139.145,367.202,143.907,373.106,143.907z"/>
	<path style="fill:#FFCE54;" d="M447.713,154.572h-74.607c-5.903,0-10.682,4.778-10.682,10.649c0,5.903,4.778,10.665,10.682,10.665
		h74.607c5.887,0,10.65-4.762,10.65-10.665C458.363,159.351,453.6,154.572,447.713,154.572z"/>
	<path style="fill:#FFCE54;" d="M138.575,186.552h-31.979c-5.887,0-10.657,4.778-10.657,10.649c0,5.903,4.771,10.665,10.657,10.665
		h31.979c5.887,0,10.665-4.762,10.665-10.665C149.24,191.33,144.462,186.552,138.575,186.552z"/>
	<path style="fill:#FFCE54;" d="M106.596,143.907h31.979c5.887,0,10.665-4.762,10.665-10.665c0-5.871-4.778-10.649-10.665-10.649
		h-31.979c-5.887,0-10.657,4.778-10.657,10.649C95.939,139.145,100.709,143.907,106.596,143.907z"/>
	<path style="fill:#FFCE54;" d="M138.575,154.572H63.959c-5.887,0-10.657,4.778-10.657,10.649c0,5.903,4.771,10.665,10.657,10.665
		h74.616c5.887,0,10.665-4.762,10.665-10.665C149.24,159.351,144.462,154.572,138.575,154.572z"/>
</g>
<path style="fill:#656D78;" d="M330.444,175.887H181.22c-5.887,0-10.665,4.778-10.665,10.665s4.778,10.649,10.665,10.649h149.225
	c5.903,0,10.681-4.762,10.681-10.649C341.125,180.665,336.348,175.887,330.444,175.887z"/>
<polygon style="fill:#DA4453;" points="177.589,329.882 334.13,329.882 329.602,263.597 182.172,263.597 "/>
<path style="fill:#ED5564;" d="M177.183,335.801h157.352l-1.467-21.33h-6.746l-42.629-42.645h46.471l-1.469-21.315H183.078
	l-1.476,21.315h11.633l42.645,42.645h-57.221L177.183,335.801z M223.388,271.826h30.152l42.645,42.645h-30.16L223.388,271.826z"/>
<g>
</g>
<g>
</g>
<g>
</g>
<g>
</g>
<g>
</g>
<g>
</g>
<g>
</g>
<g>
</g>
<g>
</g>
<g>
</g>
<g>
</g>
<g>
</g>
<g>
</g>
<g>
</g>
<g>
</g>
</svg>
